<?xml version="1.0" standalone="no"?>
<!DOCTYPE svg PUBLIC "-//W3C//DTD SVG 1.1//EN"
"http://www.w3.org/Graphics/SVG/1.1/DTD/svg11.dtd">

<svg xmlns="http://www.w3.org/2000/svg" version="1.1">
<circle cx="64" cy="640" r="26" stroke="black" fill="crimson" />
<text x="64" y="640" alignment-baseline="central" text-anchor="middle" font-size = "16">
1
</text>
<circle cx="128" cy="640" r="26" stroke="black" fill="crimson" />
<text x="128" y="640" alignment-baseline="central" text-anchor="middle" font-size = "16">
1
</text>
<circle cx="192" cy="640" r="26" stroke="black" fill="crimson" />
<text x="192" y="640" alignment-baseline="central" text-anchor="middle" font-size = "16">
1
</text>
<circle cx="256" cy="640" r="26" stroke="black" fill="crimson" />
<text x="256" y="640" alignment-baseline="central" text-anchor="middle" font-size = "16">
1
</text>
<circle cx="320" cy="640" r="26" stroke="black" fill="crimson" />
<text x="320" y="640" alignment-baseline="central" text-anchor="middle" font-size = "16">
1
</text>
<circle cx="384" cy="640" r="26" stroke="black" fill="crimson" />
<text x="384" y="640" alignment-baseline="central" text-anchor="middle" font-size = "16">
1
</text>
<circle cx="448" cy="640" r="26" stroke="black" fill="crimson" />
<text x="448" y="640" alignment-baseline="central" text-anchor="middle" font-size = "16">
1
</text>
<circle cx="512" cy="640" r="26" stroke="black" fill="crimson" />
<text x="512" y="640" alignment-baseline="central" text-anchor="middle" font-size = "16">
1
</text>
<circle cx="576" cy="640" r="26" stroke="black" fill="crimson" />
<text x="576" y="640" alignment-baseline="central" text-anchor="middle" font-size = "16">
1
</text>
<circle cx="640" cy="640" r="26" stroke="black" fill="crimson" />
<text x="640" y="640" alignment-baseline="central" text-anchor="middle" font-size = "16">
1
</text>
<circle cx="64" cy="576" r="26" stroke="black" fill="crimson" />
<text x="64" y="576" alignment-baseline="central" text-anchor="middle" font-size = "16">
1
</text>
<circle cx="128" cy="576" r="26" stroke="black" fill="crimson" />
<text x="128" y="576" alignment-baseline="central" text-anchor="middle" font-size = "16">
1
</text>
<circle cx="192" cy="576" r="26" stroke="black" fill="crimson" />
<text x="192" y="576" alignment-baseline="central" text-anchor="middle" font-size = "16">
1
</text>
<circle cx="256" cy="576" r="26" stroke="black" fill="crimson" />
<text x="256" y="576" alignment-baseline="central" text-anchor="middle" font-size = "16">
1
</text>
<circle cx="320" cy="576" r="26" stroke="black" fill="crimson" />
<text x="320" y="576" alignment-baseline="central" text-anchor="middle" font-size = "16">
1
</text>
<circle cx="384" cy="576" r="26" stroke="black" fill="crimson" />
<text x="384" y="576" alignment-baseline="central" text-anchor="middle" font-size = "16">
1
</text>
<circle cx="448" cy="576" r="26" stroke="black" fill="crimson" />
<text x="448" y="576" alignment-baseline="central" text-anchor="middle" font-size = "16">
1
</text>
<circle cx="512" cy="576" r="26" stroke="black" fill="crimson" />
<text x="512" y="576" alignment-baseline="central" text-anchor="middle" font-size = "16">
1
</text>
<circle cx="576" cy="576" r="26" stroke="black" fill="crimson" />
<text x="576" y="576" alignment-baseline="central" text-anchor="middle" font-size = "16">
1
</text>
<circle cx="640" cy="576" r="26" stroke="black" fill="crimson" />
<text x="640" y="576" alignment-baseline="central" text-anchor="middle" font-size = "16">
1
</text>
<circle cx="64" cy="512" r="26" stroke="black" fill="orange" />
<text x="64" y="512" alignment-baseline="central" text-anchor="middle" font-size = "16">
2
</text>
<circle cx="128" cy="512" r="26" stroke="black" fill="orange" />
<text x="128" y="512" alignment-baseline="central" text-anchor="middle" font-size = "16">
2
</text>
<circle cx="192" cy="512" r="26" stroke="black" fill="orange" />
<text x="192" y="512" alignment-baseline="central" text-anchor="middle" font-size = "16">
2
</text>
<circle cx="256" cy="512" r="26" stroke="black" fill="orange" />
<text x="256" y="512" alignment-baseline="central" text-anchor="middle" font-size = "16">
2
</text>
<circle cx="320" cy="512" r="26" stroke="black" fill="orange" />
<text x="320" y="512" alignment-baseline="central" text-anchor="middle" font-size = "16">
2
</text>
<circle cx="384" cy="512" r="26" stroke="black" fill="orange" />
<text x="384" y="512" alignment-baseline="central" text-anchor="middle" font-size = "16">
2
</text>
<circle cx="448" cy="512" r="26" stroke="black" fill="orange" />
<text x="448" y="512" alignment-baseline="central" text-anchor="middle" font-size = "16">
2
</text>
<circle cx="512" cy="512" r="26" stroke="black" fill="orange" />
<text x="512" y="512" alignment-baseline="central" text-anchor="middle" font-size = "16">
2
</text>
<circle cx="576" cy="512" r="26" stroke="black" fill="orange" />
<text x="576" y="512" alignment-baseline="central" text-anchor="middle" font-size = "16">
2
</text>
<circle cx="640" cy="512" r="26" stroke="black" fill="orange" />
<text x="640" y="512" alignment-baseline="central" text-anchor="middle" font-size = "16">
2
</text>
<circle cx="64" cy="448" r="26" stroke="black" fill="orange" />
<text x="64" y="448" alignment-baseline="central" text-anchor="middle" font-size = "16">
2
</text>
<circle cx="128" cy="448" r="26" stroke="black" fill="orange" />
<text x="128" y="448" alignment-baseline="central" text-anchor="middle" font-size = "16">
2
</text>
<circle cx="192" cy="448" r="26" stroke="black" fill="orange" />
<text x="192" y="448" alignment-baseline="central" text-anchor="middle" font-size = "16">
2
</text>
<circle cx="256" cy="448" r="26" stroke="black" fill="orange" />
<text x="256" y="448" alignment-baseline="central" text-anchor="middle" font-size = "16">
2
</text>
<circle cx="320" cy="448" r="26" stroke="black" fill="orange" />
<text x="320" y="448" alignment-baseline="central" text-anchor="middle" font-size = "16">
2
</text>
<circle cx="384" cy="448" r="26" stroke="black" fill="orange" />
<text x="384" y="448" alignment-baseline="central" text-anchor="middle" font-size = "16">
2
</text>
<circle cx="448" cy="448" r="26" stroke="black" fill="orange" />
<text x="448" y="448" alignment-baseline="central" text-anchor="middle" font-size = "16">
2
</text>
<circle cx="512" cy="448" r="26" stroke="black" fill="orange" />
<text x="512" y="448" alignment-baseline="central" text-anchor="middle" font-size = "16">
2
</text>
<circle cx="576" cy="448" r="26" stroke="black" fill="orange" />
<text x="576" y="448" alignment-baseline="central" text-anchor="middle" font-size = "16">
2
</text>
<circle cx="640" cy="448" r="26" stroke="black" fill="orange" />
<text x="640" y="448" alignment-baseline="central" text-anchor="middle" font-size = "16">
2
</text>
<circle cx="64" cy="384" r="26" stroke="black" fill="yellow" />
<text x="64" y="384" alignment-baseline="central" text-anchor="middle" font-size = "16">
3
</text>
<circle cx="128" cy="384" r="26" stroke="black" fill="yellow" />
<text x="128" y="384" alignment-baseline="central" text-anchor="middle" font-size = "16">
3
</text>
<circle cx="192" cy="384" r="26" stroke="black" fill="yellow" />
<text x="192" y="384" alignment-baseline="central" text-anchor="middle" font-size = "16">
3
</text>
<circle cx="256" cy="384" r="26" stroke="black" fill="yellow" />
<text x="256" y="384" alignment-baseline="central" text-anchor="middle" font-size = "16">
3
</text>
<circle cx="320" cy="384" r="26" stroke="black" fill="yellow" />
<text x="320" y="384" alignment-baseline="central" text-anchor="middle" font-size = "16">
3
</text>
<circle cx="384" cy="384" r="26" stroke="black" fill="yellow" />
<text x="384" y="384" alignment-baseline="central" text-anchor="middle" font-size = "16">
3
</text>
<circle cx="448" cy="384" r="26" stroke="black" fill="yellow" />
<text x="448" y="384" alignment-baseline="central" text-anchor="middle" font-size = "16">
3
</text>
<circle cx="512" cy="384" r="26" stroke="black" fill="yellow" />
<text x="512" y="384" alignment-baseline="central" text-anchor="middle" font-size = "16">
3
</text>
<circle cx="576" cy="384" r="26" stroke="black" fill="yellow" />
<text x="576" y="384" alignment-baseline="central" text-anchor="middle" font-size = "16">
3
</text>
<circle cx="640" cy="384" r="26" stroke="black" fill="yellow" />
<text x="640" y="384" alignment-baseline="central" text-anchor="middle" font-size = "16">
3
</text>
<circle cx="64" cy="320" r="26" stroke="black" fill="yellow" />
<text x="64" y="320" alignment-baseline="central" text-anchor="middle" font-size = "16">
3
</text>
<circle cx="128" cy="320" r="26" stroke="black" fill="yellow" />
<text x="128" y="320" alignment-baseline="central" text-anchor="middle" font-size = "16">
3
</text>
<circle cx="192" cy="320" r="26" stroke="black" fill="yellow" />
<text x="192" y="320" alignment-baseline="central" text-anchor="middle" font-size = "16">
3
</text>
<circle cx="256" cy="320" r="26" stroke="black" fill="yellow" />
<text x="256" y="320" alignment-baseline="central" text-anchor="middle" font-size = "16">
3
</text>
<circle cx="320" cy="320" r="26" stroke="black" fill="yellow" />
<text x="320" y="320" alignment-baseline="central" text-anchor="middle" font-size = "16">
3
</text>
<circle cx="384" cy="320" r="26" stroke="black" fill="yellow" />
<text x="384" y="320" alignment-baseline="central" text-anchor="middle" font-size = "16">
3
</text>
<circle cx="448" cy="320" r="26" stroke="black" fill="yellow" />
<text x="448" y="320" alignment-baseline="central" text-anchor="middle" font-size = "16">
3
</text>
<circle cx="512" cy="320" r="26" stroke="black" fill="yellow" />
<text x="512" y="320" alignment-baseline="central" text-anchor="middle" font-size = "16">
3
</text>
<circle cx="576" cy="320" r="26" stroke="black" fill="yellow" />
<text x="576" y="320" alignment-baseline="central" text-anchor="middle" font-size = "16">
3
</text>
<circle cx="640" cy="320" r="26" stroke="black" fill="yellow" />
<text x="640" y="320" alignment-baseline="central" text-anchor="middle" font-size = "16">
3
</text>
<circle cx="64" cy="256" r="26" stroke="black" fill="lightgreen" />
<text x="64" y="256" alignment-baseline="central" text-anchor="middle" font-size = "16">
4
</text>
<circle cx="128" cy="256" r="26" stroke="black" fill="lightgreen" />
<text x="128" y="256" alignment-baseline="central" text-anchor="middle" font-size = "16">
4
</text>
<circle cx="192" cy="256" r="26" stroke="black" fill="lightgreen" />
<text x="192" y="256" alignment-baseline="central" text-anchor="middle" font-size = "16">
4
</text>
<circle cx="256" cy="256" r="26" stroke="black" fill="lightgreen" />
<text x="256" y="256" alignment-baseline="central" text-anchor="middle" font-size = "16">
4
</text>
<circle cx="320" cy="256" r="26" stroke="black" fill="lightgreen" />
<text x="320" y="256" alignment-baseline="central" text-anchor="middle" font-size = "16">
4
</text>
<circle cx="384" cy="256" r="26" stroke="black" fill="lightgreen" />
<text x="384" y="256" alignment-baseline="central" text-anchor="middle" font-size = "16">
4
</text>
<circle cx="448" cy="256" r="26" stroke="black" fill="lightgreen" />
<text x="448" y="256" alignment-baseline="central" text-anchor="middle" font-size = "16">
4
</text>
<circle cx="512" cy="256" r="26" stroke="black" fill="lightgreen" />
<text x="512" y="256" alignment-baseline="central" text-anchor="middle" font-size = "16">
4
</text>
<circle cx="576" cy="256" r="26" stroke="black" fill="lightgreen" />
<text x="576" y="256" alignment-baseline="central" text-anchor="middle" font-size = "16">
4
</text>
<circle cx="640" cy="256" r="26" stroke="black" fill="lightgreen" />
<text x="640" y="256" alignment-baseline="central" text-anchor="middle" font-size = "16">
4
</text>
<circle cx="64" cy="192" r="26" stroke="black" fill="lightgreen" />
<text x="64" y="192" alignment-baseline="central" text-anchor="middle" font-size = "16">
4
</text>
<circle cx="128" cy="192" r="26" stroke="black" fill="lightgreen" />
<text x="128" y="192" alignment-baseline="central" text-anchor="middle" font-size = "16">
4
</text>
<circle cx="192" cy="192" r="26" stroke="black" fill="lightgreen" />
<text x="192" y="192" alignment-baseline="central" text-anchor="middle" font-size = "16">
4
</text>
<circle cx="256" cy="192" r="26" stroke="black" fill="lightgreen" />
<text x="256" y="192" alignment-baseline="central" text-anchor="middle" font-size = "16">
4
</text>
<circle cx="320" cy="192" r="26" stroke="black" fill="lightgreen" />
<text x="320" y="192" alignment-baseline="central" text-anchor="middle" font-size = "16">
4
</text>
<circle cx="384" cy="192" r="26" stroke="black" fill="lightgreen" />
<text x="384" y="192" alignment-baseline="central" text-anchor="middle" font-size = "16">
4
</text>
<circle cx="448" cy="192" r="26" stroke="black" fill="lightgreen" />
<text x="448" y="192" alignment-baseline="central" text-anchor="middle" font-size = "16">
4
</text>
<circle cx="512" cy="192" r="26" stroke="black" fill="lightgreen" />
<text x="512" y="192" alignment-baseline="central" text-anchor="middle" font-size = "16">
4
</text>
<circle cx="576" cy="192" r="26" stroke="black" fill="lightgreen" />
<text x="576" y="192" alignment-baseline="central" text-anchor="middle" font-size = "16">
4
</text>
<circle cx="640" cy="192" r="26" stroke="black" fill="lightgreen" />
<text x="640" y="192" alignment-baseline="central" text-anchor="middle" font-size = "16">
4
</text>
<circle cx="64" cy="128" r="26" stroke="black" fill="crimson" />
<text x="64" y="128" alignment-baseline="central" text-anchor="middle" font-size = "16">
5
</text>
<circle cx="128" cy="128" r="26" stroke="black" fill="crimson" />
<text x="128" y="128" alignment-baseline="central" text-anchor="middle" font-size = "16">
5
</text>
<circle cx="192" cy="128" r="26" stroke="black" fill="crimson" />
<text x="192" y="128" alignment-baseline="central" text-anchor="middle" font-size = "16">
5
</text>
<circle cx="256" cy="128" r="26" stroke="black" fill="crimson" />
<text x="256" y="128" alignment-baseline="central" text-anchor="middle" font-size = "16">
5
</text>
<circle cx="320" cy="128" r="26" stroke="black" fill="crimson" />
<text x="320" y="128" alignment-baseline="central" text-anchor="middle" font-size = "16">
5
</text>
<circle cx="384" cy="128" r="26" stroke="black" fill="crimson" />
<text x="384" y="128" alignment-baseline="central" text-anchor="middle" font-size = "16">
5
</text>
<circle cx="448" cy="128" r="26" stroke="black" fill="crimson" />
<text x="448" y="128" alignment-baseline="central" text-anchor="middle" font-size = "16">
5
</text>
<circle cx="512" cy="128" r="26" stroke="black" fill="crimson" />
<text x="512" y="128" alignment-baseline="central" text-anchor="middle" font-size = "16">
5
</text>
<circle cx="576" cy="128" r="26" stroke="black" fill="crimson" />
<text x="576" y="128" alignment-baseline="central" text-anchor="middle" font-size = "16">
5
</text>
<circle cx="640" cy="128" r="26" stroke="black" fill="crimson" />
<text x="640" y="128" alignment-baseline="central" text-anchor="middle" font-size = "16">
5
</text>
<circle cx="64" cy="64" r="26" stroke="black" fill="crimson" />
<text x="64" y="64" alignment-baseline="central" text-anchor="middle" font-size = "16">
5
</text>
<circle cx="128" cy="64" r="26" stroke="black" fill="crimson" />
<text x="128" y="64" alignment-baseline="central" text-anchor="middle" font-size = "16">
5
</text>
<circle cx="192" cy="64" r="26" stroke="black" fill="crimson" />
<text x="192" y="64" alignment-baseline="central" text-anchor="middle" font-size = "16">
5
</text>
<circle cx="256" cy="64" r="26" stroke="black" fill="crimson" />
<text x="256" y="64" alignment-baseline="central" text-anchor="middle" font-size = "16">
5
</text>
<circle cx="320" cy="64" r="26" stroke="black" fill="crimson" />
<text x="320" y="64" alignment-baseline="central" text-anchor="middle" font-size = "16">
5
</text>
<circle cx="384" cy="64" r="26" stroke="black" fill="crimson" />
<text x="384" y="64" alignment-baseline="central" text-anchor="middle" font-size = "16">
5
</text>
<circle cx="448" cy="64" r="26" stroke="black" fill="crimson" />
<text x="448" y="64" alignment-baseline="central" text-anchor="middle" font-size = "16">
5
</text>
<circle cx="512" cy="64" r="26" stroke="black" fill="crimson" />
<text x="512" y="64" alignment-baseline="central" text-anchor="middle" font-size = "16">
5
</text>
<circle cx="576" cy="64" r="26" stroke="black" fill="crimson" />
<text x="576" y="64" alignment-baseline="central" text-anchor="middle" font-size = "16">
5
</text>
<circle cx="640" cy="64" r="26" stroke="black" fill="crimson" />
<text x="640" y="64" alignment-baseline="central" text-anchor="middle" font-size = "16">
5
</text>
</svg>
